<svg width="1280" height="720" viewBox="0 0 1280 720" fill="none" xmlns="http://www.w3.org/2000/svg">
<path d="M1280 720H0V0H1280V720ZM121 132V548H537V132H121Z" fill="#FFE600"/>
<g clip-path="url(#clip0_601_10)">
<path d="M317.315 637.028C311.976 636.772 309.933 636.288 306.268 634.414C304.503 633.513 303.648 632.891 301.722 631.113C299.503 629.064 299.179 628.646 296.129 623.883C294.164 620.815 293.546 619.653 292.504 617.067C291.769 615.242 291.444 614.096 290.985 611.704C290.166 607.434 289.686 603.46 289.43 598.828C289.333 597.081 289.195 594.676 289.124 593.484C289.015 591.67 289.021 590.181 289.158 584.371C289.307 578.03 289.355 577.007 289.713 572.602C289.929 569.949 290.189 566.964 290.292 565.969C290.542 563.556 291.191 557.738 291.503 555.122C291.994 550.996 292.062 550.137 291.94 549.651C291.787 549.045 291.374 548.663 290.704 548.508C290.298 548.414 287.18 548.365 278.114 548.31C271.487 548.269 259.272 548.188 250.969 548.131C242.667 548.073 235.124 548.033 234.208 548.041C233.291 548.049 231.11 548.046 229.36 548.035C217.545 547.959 214.499 547.957 213.975 548.027C212.086 548.279 211.57 549.172 211.333 552.598C211.17 554.942 211.102 555.559 210.553 559.629C209.516 567.32 209.397 567.927 208.488 570.175C207.908 571.609 207.322 572.671 206.68 573.451C206.189 574.047 203.383 576.548 202.43 577.239C201.642 577.809 200.906 578.053 200.031 578.033C198.959 578.008 198.276 577.693 197.476 576.855C196.504 575.838 195.928 574.695 194.978 571.904C194.658 570.962 194.29 570.327 194.061 570.321C193.806 570.316 193.562 570.716 193.042 571.997C192.448 573.462 192.104 574.611 191.737 576.36C191.598 577.021 191.368 577.854 191.226 578.211C190.49 580.059 188.69 581.465 186.526 581.881C183.647 582.435 180.093 581.017 178.516 578.685C177.938 577.831 177.708 577.323 176.716 574.717C175.477 571.46 175.038 570.663 174.577 570.827C174.273 570.935 174.076 571.488 173.619 573.517C173.227 575.258 172.903 576.181 172.447 576.854C171.216 578.672 168.548 579.907 165.65 580.001C164.437 580.04 163.458 579.879 162.23 579.438C160.016 578.644 158.4 577.068 157.217 574.548C156.667 573.376 156.384 572.324 156.212 570.811C155.89 567.987 155.711 567.215 155.343 567.064C155.085 566.959 154.906 567.101 153.745 568.339C152.518 569.649 150.624 571.324 149.749 571.874C148.358 572.749 146.952 572.957 145.371 572.523C142.899 571.844 141.535 570.459 140.446 567.521C140.111 566.621 139.756 565.128 139.624 564.068C139.528 563.299 139.104 557.838 139.032 556.451C138.941 554.686 138.686 551.747 138.593 551.383C138.407 550.658 137.866 550.182 136.977 549.961C136.132 549.752 131.051 549.211 128.4 549.049C124.832 548.831 124.193 548.681 123.321 547.859C122.503 547.089 122.326 546.004 122.853 545.007C123.17 544.409 123.662 544.026 124.521 543.709C125.087 543.5 125.194 543.498 131.255 543.573C135.636 543.627 137.531 543.616 137.82 543.535C138.837 543.252 139.185 542.831 139.739 541.211C140.259 539.695 140.701 538.903 141.394 538.254C142.191 537.506 142.176 537.515 146.846 534.957C151.156 532.596 152.296 532.021 153.379 531.66C154.898 531.153 159.677 530.052 161.468 529.795C162.733 529.614 169.795 528.89 172.35 528.679C174.12 528.533 181.302 528.493 183.41 528.618C185.6 528.747 190.865 529.658 193.367 530.341C196.421 531.175 198.329 531.851 200.479 532.859C203.501 534.277 204.338 534.837 205.799 536.42C206.898 537.609 207.51 538.492 208.095 539.733C208.981 541.611 209.668 542.265 211.017 542.514C212.487 542.785 222.641 542.2 224.862 541.715C225.864 541.497 226.504 541 226.701 540.289C226.757 540.085 226.847 539.103 226.901 538.108C227.069 534.997 227.233 534.188 229.024 527.634C229.618 525.46 230.468 522.24 230.912 520.478C231.356 518.716 231.889 516.781 232.096 516.18C232.303 515.578 233.423 512.862 234.586 510.145C235.748 507.428 237.577 503.119 238.65 500.568C240.819 495.409 241.047 494.943 242.724 492.255C243.371 491.217 244.154 489.944 244.464 489.425C247.277 484.72 247.304 484.683 250.418 481.256C251.952 479.568 252.733 478.816 255.471 476.391C256.293 475.663 257.682 474.367 258.559 473.512C260.16 471.949 261.198 471.107 262.529 470.291C265.988 468.172 270.31 465.68 271.742 464.98C272.986 464.372 277.816 462.404 280.614 461.366C282.962 460.495 290.14 458.466 292.099 458.12C293.331 457.903 299.475 457.143 301.366 456.974C306.706 456.498 314.625 456.238 317.941 456.43C320.544 456.581 324.426 457.19 327.6 457.946C329.865 458.485 331.211 458.773 332.273 458.945C334.523 459.308 335.469 459.609 338.438 460.901C339.62 461.416 341.646 462.235 342.94 462.723C345.918 463.845 346.696 464.211 349.826 465.967C351.227 466.753 352.8 467.633 353.321 467.922C355.566 469.169 356.008 469.434 356.821 470.012C357.293 470.347 358.118 471.018 358.654 471.503C360.281 472.972 361.538 474.038 363.048 475.226C365.581 477.221 367.281 478.715 369.529 480.925C373.077 484.411 374.587 486.195 377.779 490.671C380.301 494.207 380.564 494.607 382.193 497.369C384.715 501.648 385.157 502.447 387.53 507.01C388.391 508.665 391.599 515.417 391.595 515.566C391.595 515.581 391.763 515.977 391.968 516.444C392.516 517.689 393.49 520.422 396.216 528.36C397.688 532.647 397.64 532.498 398.891 536.73C399.47 538.689 400.078 540.537 400.273 540.929C400.694 541.78 401.257 542.252 402.064 542.434C402.812 542.602 415.891 542.908 416.978 542.783C417.94 542.672 418.866 542.289 419.4 541.779C419.774 541.423 419.978 541.066 420.978 539.025C421.896 537.151 423.23 535.621 425.038 534.368C427.607 532.589 429.902 531.638 434.685 530.374C439.113 529.203 441.975 528.602 443.757 528.469C444.773 528.394 449.015 528.149 450.785 528.064C452.279 527.992 456.937 528.134 458.606 528.302C458.883 528.33 459.972 528.399 461.026 528.457C465.553 528.703 470.194 529.133 472.816 529.55C474.854 529.874 478.02 530.811 479.486 531.524C479.898 531.724 480.997 532.329 481.928 532.867C482.86 533.406 484.235 534.187 484.983 534.604C487.174 535.823 487.533 536.194 489.645 539.422C490.873 541.296 491.245 541.73 491.942 542.091L492.512 542.387L497.357 542.5C500.021 542.562 509.197 542.753 517.746 542.925L533.291 543.237L533.891 543.491C535.611 544.22 536.031 546.044 534.759 547.26C534.188 547.806 533.484 548.073 532.301 548.194C531.768 548.248 524.722 548.16 513.186 547.954C500.292 547.724 494.795 547.658 494.508 547.731C493.16 548.074 492.94 548.812 493.32 551.721C493.552 553.496 493.56 553.756 493.484 556.911C493.399 560.437 493.292 561.518 492.811 563.743C492.234 566.412 491.638 567.965 490.519 569.719C489.504 571.31 488.389 572.097 486.568 572.51C483.621 573.178 480.962 571.787 478.403 568.24C477.915 567.564 477.404 566.884 477.267 566.729C476.586 565.956 476.273 566.66 475.969 569.644C475.796 571.341 475.668 572.065 475.337 573.208C474.845 574.906 474.072 576.174 472.761 577.431C471.183 578.944 469.564 579.66 467.807 579.623C466.077 579.586 464.796 578.885 462.839 576.903C461.303 575.347 460.675 574.344 459.804 572.05C459.529 571.325 459.243 570.947 459.029 571.023C458.821 571.097 458.591 571.657 458.171 573.115C456.827 577.776 455.669 580.068 453.844 581.676C450.755 584.396 445.845 583.423 443.022 579.53C441.919 578.01 441.149 576.272 440.44 573.708C440.035 572.245 439.797 571.649 439.52 571.408C439.372 571.28 439.324 571.297 439.104 571.557C438.968 571.718 438.765 572.074 438.654 572.349C437.718 574.659 436.594 575.99 434.945 576.74C434.108 577.121 433.505 577.233 432.421 577.21C431.296 577.185 430.462 576.956 429.411 576.381C428.089 575.658 426.094 573.45 424.907 571.395C423.776 569.438 422.088 565.081 421.542 562.71C420.996 560.341 420.35 556.239 419.881 552.174C419.561 549.402 419.356 548.88 418.437 548.506C417.862 548.271 418.769 548.28 383.514 548.152C377.96 548.132 372.621 548.12 371.649 548.125C370.677 548.13 368.654 548.131 367.155 548.126C362.478 548.111 351.491 548.102 349.533 548.112C348.505 548.117 346.21 548.114 344.433 548.106C339.662 548.083 339.004 548.166 338.463 548.855C338.091 549.329 338.138 550.321 338.606 551.839C339.013 553.159 339.174 554.18 339.379 556.742C339.497 558.211 339.923 561.159 340.481 564.37C340.741 565.861 341.095 567.785 343.932 583.131C345.368 590.897 345.434 591.313 345.593 593.542C345.66 594.485 345.784 596.028 345.869 596.972C346.168 600.318 346.503 608.771 346.441 611.434C346.369 614.51 345.802 616.979 344.259 620.928C343.257 623.491 342.575 624.957 341.734 626.35C339.264 630.444 337.729 631.939 333.762 634.114C330.251 636.038 329.692 636.21 324.945 636.818C322.437 637.139 320.648 637.188 317.315 637.028Z" fill="white"/>
<path d="M317.315 637.027C311.976 636.771 309.933 636.288 306.267 634.414C304.503 633.512 303.647 632.89 301.721 631.112C299.502 629.064 299.179 628.646 296.128 623.882C294.163 620.814 293.545 619.653 292.503 617.066C291.768 615.242 291.444 614.096 290.985 611.703C290.166 607.433 289.686 603.46 289.429 598.828C289.333 597.081 289.195 594.676 289.123 593.483C289.015 591.67 289.02 590.18 289.157 584.371C289.307 578.03 289.355 577.007 289.713 572.602C289.928 569.948 290.189 566.963 290.292 565.969C290.541 563.556 291.19 557.738 291.502 555.121C291.993 550.995 292.062 550.136 291.939 549.65C291.786 549.044 291.374 548.663 290.703 548.508C290.297 548.414 287.18 548.365 278.114 548.309C271.486 548.268 259.271 548.188 250.969 548.13C242.667 548.073 235.124 548.032 234.207 548.04C233.291 548.048 231.109 548.046 229.36 548.035C217.544 547.958 214.499 547.957 213.974 548.027C212.085 548.279 211.569 549.172 211.332 552.597C211.17 554.942 211.101 555.558 210.553 559.628C209.516 567.32 209.397 567.927 208.488 570.174C207.907 571.609 207.322 572.67 206.679 573.45C206.189 574.046 203.382 576.548 202.43 577.238C201.642 577.809 200.906 578.053 200.031 578.032C198.958 578.007 198.276 577.693 197.475 576.855C196.504 575.838 195.927 574.694 194.978 571.903C194.658 570.961 194.29 570.326 194.061 570.321C193.805 570.315 193.561 570.716 193.042 571.996C192.447 573.462 192.103 574.61 191.736 576.359C191.597 577.021 191.367 577.854 191.225 578.21C190.489 580.059 188.689 581.464 186.525 581.881C183.647 582.435 180.093 581.017 178.516 578.685C177.938 577.83 177.707 577.322 176.716 574.716C175.477 571.459 175.038 570.662 174.576 570.827C174.272 570.935 174.075 571.488 173.618 573.517C173.226 575.257 172.902 576.18 172.447 576.853C171.216 578.671 168.547 579.907 165.649 580C164.437 580.039 163.457 579.878 162.23 579.438C160.016 578.644 158.4 577.067 157.217 574.547C156.667 573.376 156.384 572.323 156.211 570.811C155.89 567.987 155.711 567.215 155.342 567.064C155.084 566.958 154.906 567.1 153.745 568.339C152.517 569.648 150.623 571.323 149.748 571.874C148.357 572.748 146.952 572.956 145.371 572.522C142.899 571.843 141.535 570.458 140.445 567.521C140.111 566.62 139.756 565.128 139.623 564.067C139.528 563.299 139.103 557.838 139.032 556.45C138.941 554.686 138.686 551.746 138.593 551.383C138.406 550.657 137.865 550.181 136.976 549.96C136.132 549.751 131.05 549.211 128.4 549.048C124.832 548.83 124.192 548.68 123.32 547.859C122.503 547.089 122.325 546.003 122.853 545.006C123.169 544.408 123.661 544.025 124.521 543.708C125.087 543.499 125.193 543.497 131.254 543.572C135.635 543.626 137.53 543.615 137.819 543.535C138.836 543.251 139.184 542.83 139.739 541.21C140.258 539.694 140.701 538.903 141.393 538.254C142.19 537.506 142.175 537.515 146.846 534.957C151.155 532.596 152.295 532.02 153.379 531.659C154.898 531.153 159.676 530.051 161.468 529.795C162.732 529.614 169.795 528.889 172.35 528.679C174.12 528.533 181.302 528.493 183.409 528.617C185.6 528.746 190.865 529.658 193.367 530.341C196.421 531.174 198.329 531.85 200.478 532.859C203.5 534.277 204.337 534.837 205.799 536.419C206.898 537.608 207.509 538.491 208.095 539.733C208.98 541.611 209.667 542.264 211.017 542.514C212.486 542.785 222.64 542.199 224.862 541.715C225.864 541.496 226.504 541 226.7 540.288C226.757 540.084 226.847 539.103 226.9 538.107C227.068 534.996 227.232 534.188 229.023 527.633C229.617 525.459 230.467 522.239 230.912 520.477C231.356 518.715 231.889 516.781 232.095 516.179C232.302 515.577 233.422 512.862 234.585 510.145C235.748 507.428 237.577 503.118 238.649 500.568C240.819 495.409 241.047 494.943 242.724 492.254C243.371 491.217 244.154 489.944 244.464 489.425C247.276 484.72 247.304 484.682 250.418 481.256C251.952 479.567 252.732 478.816 255.471 476.39C256.292 475.663 257.682 474.367 258.559 473.511C260.16 471.948 261.197 471.107 262.529 470.291C265.987 468.172 270.309 465.68 271.742 464.98C272.986 464.371 277.815 462.404 280.614 461.366C282.962 460.494 290.14 458.466 292.099 458.12C293.33 457.902 299.475 457.142 301.366 456.974C306.706 456.497 314.624 456.237 317.94 456.429C320.544 456.58 324.425 457.189 327.6 457.945C329.865 458.485 331.211 458.772 332.272 458.944C334.523 459.308 335.469 459.608 338.437 460.901C339.62 461.415 341.646 462.235 342.939 462.722C345.918 463.844 346.695 464.211 349.825 465.966C351.227 466.752 352.8 467.633 353.321 467.922C355.565 469.169 356.008 469.433 356.82 470.011C357.292 470.347 358.117 471.018 358.654 471.503C360.28 472.972 361.538 474.037 363.047 475.226C365.58 477.22 367.28 478.715 369.529 480.924C373.077 484.411 374.587 486.195 377.778 490.67C380.3 494.207 380.564 494.606 382.192 497.369C384.714 501.647 385.157 502.447 387.53 507.01C388.39 508.664 391.598 515.416 391.595 515.565C391.594 515.581 391.762 515.976 391.968 516.443C392.516 517.689 393.49 520.421 396.215 528.359C397.687 532.647 397.64 532.497 398.891 536.73C399.47 538.688 400.078 540.536 400.272 540.929C400.694 541.779 401.256 542.252 402.064 542.433C402.812 542.601 415.89 542.907 416.977 542.782C417.94 542.672 418.865 542.288 419.4 541.779C419.773 541.422 419.978 541.066 420.978 539.024C421.895 537.151 423.23 535.62 425.037 534.368C427.606 532.588 429.902 531.638 434.685 530.373C439.113 529.202 441.975 528.602 443.757 528.469C444.773 528.393 449.015 528.148 450.785 528.063C452.278 527.991 456.937 528.133 458.606 528.301C458.883 528.329 459.972 528.399 461.026 528.456C465.553 528.702 470.193 529.133 472.816 529.55C474.854 529.874 478.02 530.811 479.485 531.524C479.897 531.724 480.996 532.328 481.928 532.867C482.86 533.405 484.234 534.187 484.983 534.603C487.173 535.822 487.533 536.194 489.645 539.421C490.872 541.296 491.245 541.729 491.941 542.091L492.512 542.387L497.356 542.5C500.021 542.562 509.196 542.753 517.746 542.925L533.29 543.237L533.89 543.491C535.611 544.22 536.031 546.043 534.759 547.259C534.188 547.805 533.483 548.073 532.301 548.193C531.767 548.248 524.722 548.159 513.185 547.953C500.291 547.723 494.794 547.658 494.508 547.731C493.159 548.074 492.939 548.812 493.319 551.72C493.551 553.495 493.559 553.755 493.483 556.91C493.398 560.437 493.292 561.517 492.811 563.742C492.233 566.412 491.638 567.964 490.518 569.718C489.503 571.31 488.389 572.097 486.567 572.509C483.62 573.177 480.961 571.786 478.402 568.24C477.914 567.564 477.403 566.884 477.266 566.728C476.586 565.955 476.273 566.659 475.969 569.643C475.796 571.341 475.667 572.064 475.336 573.208C474.845 574.906 474.072 576.173 472.761 577.43C471.182 578.943 469.564 579.66 467.807 579.622C466.077 579.586 464.795 578.884 462.838 576.902C461.302 575.346 460.675 574.343 459.804 572.05C459.528 571.325 459.243 570.946 459.029 571.022C458.82 571.097 458.59 571.657 458.17 573.114C456.827 577.775 455.668 580.068 453.843 581.675C450.755 584.396 445.844 583.422 443.022 579.53C441.919 578.009 441.148 576.272 440.44 573.708C440.035 572.244 439.797 571.649 439.519 571.408C439.371 571.28 439.323 571.297 439.104 571.556C438.967 571.717 438.765 572.074 438.654 572.348C437.718 574.658 436.594 575.989 434.944 576.74C434.107 577.12 433.505 577.233 432.42 577.209C431.296 577.185 430.462 576.955 429.41 576.38C428.088 575.657 426.094 573.449 424.906 571.394C423.776 569.437 422.088 565.081 421.542 562.709C420.996 560.34 420.349 556.238 419.88 552.173C419.561 549.401 419.356 548.88 418.437 548.505C417.861 548.27 418.768 548.279 383.513 548.152C377.96 548.132 372.62 548.119 371.648 548.125C370.676 548.13 368.654 548.13 367.154 548.125C362.478 548.11 351.49 548.101 349.532 548.111C348.505 548.116 346.21 548.114 344.433 548.105C339.661 548.083 339.004 548.165 338.463 548.854C338.09 549.328 338.138 550.321 338.606 551.839C339.013 553.158 339.174 554.179 339.379 556.741C339.496 558.21 339.922 561.159 340.481 564.37C340.74 565.861 341.094 567.785 343.931 583.13C345.367 590.896 345.434 591.313 345.592 593.541C345.66 594.484 345.784 596.028 345.868 596.971C346.168 600.317 346.502 608.771 346.44 611.434C346.368 614.51 345.801 616.978 344.258 620.927C343.257 623.491 342.574 624.957 341.734 626.35C339.264 630.444 337.729 631.939 333.761 634.113C330.25 636.038 329.692 636.209 324.944 636.817C322.436 637.138 320.648 637.187 317.315 637.027ZM322.875 631.14C328.485 630.362 331.375 629.291 334.144 626.962C335.253 626.03 335.948 625.164 336.626 623.87C337.861 621.513 338.646 619.315 340.201 613.858L340.6 612.457L340.649 610.092C340.676 608.791 340.657 607.069 340.607 606.264C340.528 604.985 339.153 593.365 338.402 587.634C338.257 586.522 337.095 579.743 335.819 572.569C330.798 544.318 331.186 546.467 329.025 534.899C327.737 528.005 327.657 527.5 327.681 526.459C327.7 525.634 327.752 525.258 327.886 524.982C328.36 524.004 329.305 523.467 330.36 523.576C331.86 523.731 332.92 524.85 333.559 526.955C333.778 527.677 333.904 528.385 334.68 533.281C334.989 535.233 335.326 537.195 335.429 537.64C335.69 538.767 336.246 540.462 336.549 541.052C336.864 541.666 337.512 542.274 338.032 542.443C338.551 542.611 340.831 542.658 348.851 542.666C352.434 542.669 356.478 542.673 357.839 542.675C359.2 542.676 361.336 542.679 362.585 542.681C363.835 542.684 365.948 542.687 367.281 542.69C368.614 542.692 370.772 542.696 372.078 542.698C373.383 542.7 375.405 542.701 376.571 542.7C377.738 542.699 381.896 542.707 385.811 542.717C389.727 542.727 393.13 542.713 393.374 542.686C394.02 542.615 394.269 542.478 394.467 542.087C394.726 541.573 394.621 541.157 393.258 537.296C392.598 535.429 392.005 533.742 391.94 533.547C391.874 533.351 391.381 531.958 390.844 530.45C390.308 528.942 389.752 527.365 389.61 526.947C389.033 525.248 387.412 520.961 386.71 519.276C386.64 519.108 386.295 518.239 385.942 517.345C385.168 515.382 384.398 513.739 381.933 508.791C379.872 504.656 377.894 500.864 377.078 499.484C376.571 498.627 375.704 497.458 373.105 494.124C371.83 492.488 370.602 490.856 367.753 487.012C366.786 485.708 365.712 484.388 365.206 483.88C364.325 482.997 360.189 479.476 358.435 478.116C357.325 477.255 353.326 474.572 351.63 473.55C349.469 472.247 341.334 468.175 337.892 466.673C336.322 465.987 332.357 464.893 327.162 463.711C324.247 463.048 323.09 462.838 319.721 462.358C317.097 461.984 316.783 461.96 313.672 461.898C311.868 461.862 309.505 461.864 308.421 461.902C305.69 461.997 299.308 462.471 297.9 462.682C296.496 462.893 289.567 464.468 288.008 464.931C286.331 465.428 281.668 467.26 279.644 468.216C277.809 469.082 273.463 471.306 272.183 472.034C270.226 473.146 266.773 475.442 264.285 477.285C260.921 479.777 261.037 479.662 256.874 484.629C255.599 486.15 253.665 488.438 252.575 489.714C250.411 492.249 249.405 493.557 248.162 495.452C247.018 497.197 246.998 497.237 244.625 502.721C241.284 510.437 241.226 510.587 239.768 515.245C239.028 517.61 238.028 520.637 237.546 521.973C236.53 524.789 236.329 525.511 236.007 527.494C235.878 528.294 235.607 529.964 235.405 531.206C235.204 532.447 234.758 534.952 234.413 536.772C233.72 540.44 233.625 541.497 233.928 542.205C234.152 542.729 234.691 543.196 235.357 543.444C236.159 543.744 239.504 543.837 247.132 543.772C253.879 543.714 277.128 543.542 283.342 543.504C288.264 543.473 289.071 543.446 289.635 543.293C290.679 543.011 291.061 542.457 291.234 540.979C291.296 540.447 291.485 537.161 291.653 533.675C291.822 530.19 292.009 527.037 292.07 526.669C292.39 524.72 293.502 523.598 295.08 523.635C296.304 523.663 297.383 524.65 297.831 526.15C298.065 526.932 298.056 528.314 297.774 534.724C297.277 545.995 297.125 548.554 296.633 553.881C295.203 569.373 295.126 570.3 294.95 574.083C294.884 575.494 294.707 579.193 294.556 582.302C294.169 590.306 294.217 593.783 294.801 600.212C295.323 605.956 295.423 606.661 296.271 610.528C297.045 614.061 298.321 617.497 299.827 620.105C301.251 622.571 301.824 623.257 304.349 625.515C306.472 627.413 307.462 628.23 308.168 628.665C309.61 629.552 312.726 630.559 315.736 631.11C317.095 631.359 321.17 631.376 322.875 631.14ZM292.539 510.718C291.964 510.584 291.007 510.026 290.51 509.535C288.746 507.792 288.735 504.949 290.487 503.308C292.659 501.274 296.044 502.029 297.298 504.827C297.637 505.583 297.652 505.667 297.63 506.676C297.609 507.67 297.586 507.775 297.245 508.458C296.783 509.386 295.868 510.236 294.999 510.546C294.41 510.756 293.097 510.848 292.539 510.718ZM329.983 510.152C328.242 509.552 327.118 507.97 327.142 506.155C327.187 502.806 330.917 500.889 333.706 502.78C335.426 503.946 336.015 506.282 335.048 508.102C334.064 509.953 331.923 510.82 329.983 510.152ZM185.094 574.722C185.886 574.262 186.989 572.434 187.809 570.226C188.215 569.13 188.216 569.123 188.257 567.467C188.28 566.553 188.27 564.446 188.236 562.784C188.14 558.16 188.235 554.092 188.461 553.21C188.828 551.774 189.715 550.594 190.806 550.092C191.169 549.925 191.514 549.862 192.136 549.849C192.912 549.833 193.025 549.857 193.61 550.162C194.692 550.724 195.517 551.854 195.993 553.422C196.315 554.483 196.505 555.931 196.91 560.418C197.126 562.815 197.312 563.901 197.69 564.973C198.464 567.172 199.146 568.1 200.132 568.302C200.694 568.417 201.519 568.012 201.934 567.418C202.431 566.705 202.586 566.099 203.408 561.627C203.83 559.337 203.856 558.691 203.867 550.46C203.871 546.618 203.851 546.036 203.683 545.296C203.226 543.284 202.463 541.817 201.277 540.673C199.539 538.995 196.049 537.127 191.78 535.59C189.665 534.828 189.315 534.753 185.148 534.174C179.781 533.427 179.499 533.403 175.624 533.36C172.11 533.321 172.074 533.323 169.204 533.674C167.616 533.869 165.838 534.111 165.253 534.214C162.666 534.668 153.684 537.344 150.66 538.562C149.483 539.037 148.892 539.421 147.98 540.306C146.287 541.949 145.449 543.652 144.8 546.766C144.438 548.507 144.454 552.901 144.837 556.686C144.924 557.547 145.07 559.114 145.16 560.168C145.475 563.834 145.839 564.952 146.891 565.49C147.428 565.765 147.878 565.775 148.432 565.523C149.365 565.1 150.183 563.623 151.071 560.759L151.459 559.509L151.605 556.593C151.744 553.827 151.77 553.606 152.099 552.324C152.801 549.598 153.271 548.581 154.494 547.141C155.069 546.465 155.841 545.866 156.13 545.873C156.214 545.875 156.35 545.811 156.434 545.731C156.568 545.604 156.641 545.617 157.044 545.843C157.296 545.985 157.503 546.07 157.504 546.032C157.51 545.805 158.444 546.975 159.142 548.083C160.692 550.546 160.756 550.827 161.234 557.321C161.615 562.496 161.791 563.817 162.473 566.614C162.717 567.617 163.025 568.964 163.157 569.608C163.44 570.984 163.803 571.858 164.316 572.394C165.364 573.489 166.724 573.444 167.561 572.288C168.251 571.334 168.635 569.778 168.988 566.507C169.098 565.482 169.298 563.991 169.43 563.195C169.799 560.987 169.859 559.718 169.716 557.216C169.647 555.998 169.624 554.617 169.665 554.146C169.843 552.111 170.881 550.695 172.648 550.076C173.108 549.916 173.376 549.889 174.025 549.938C175.296 550.035 176.206 550.63 176.999 551.881C177.664 552.932 177.968 554.052 178.169 556.205C178.472 559.436 179.037 563.748 179.459 566.042C179.905 568.468 181.286 572.001 182.469 573.745C183.289 574.953 184.148 575.272 185.094 574.722ZM450.858 575.985C451.981 575.6 452.861 574.385 453.306 572.604C453.517 571.761 453.548 571.278 453.697 566.556C453.853 561.605 453.852 561.321 453.657 558.499C453.381 554.522 453.487 553.415 454.282 551.939C454.907 550.78 456.017 549.902 457.212 549.621C457.989 549.438 458.421 549.457 459.161 549.706C460.805 550.259 462.154 552.212 462.593 554.679C462.772 555.682 462.861 556.873 463.01 560.278C463.16 563.684 463.362 564.999 464.199 568.027C464.732 569.954 465.088 570.802 465.641 571.459C466.565 572.556 467.659 572.737 468.505 571.932C469.154 571.314 469.354 570.619 469.596 568.143C469.705 567.033 469.975 564.363 470.197 562.208C470.441 559.836 470.585 557.992 470.562 557.534C470.517 556.671 470.339 556.067 469.722 554.695C469 553.088 468.863 552.176 469.19 551.151C469.766 549.343 471.386 548.249 473.796 548.038C475.569 547.883 477.045 548.394 478.058 549.513C478.968 550.519 479.19 551.253 480.163 556.467C480.44 557.951 480.809 559.621 480.982 560.176C481.374 561.432 482.076 562.884 482.582 563.485C483.454 564.52 484.575 564.568 485.324 563.601C486.23 562.431 487.237 558.563 487.296 556.023C487.319 555.015 487.093 552.4 486.863 551.032C486.62 549.581 485.531 546.252 484.701 544.42C484.04 542.959 482.431 540.138 481.828 539.38C481.261 538.667 480.657 538.188 479.534 537.559C478.372 536.909 477.288 536.464 476.264 536.217C475.119 535.94 465.765 534.208 464.166 533.977C462.816 533.782 455.658 533.318 452.482 533.219C450.211 533.149 450.121 533.159 445.042 533.99C440.408 534.748 438.699 535.14 436.107 536.036C432.396 537.32 429.335 539.381 427.776 541.647C427.173 542.523 426.464 543.999 425.893 545.566C424.815 548.527 424.717 549.9 425.3 553.86C425.799 557.252 426.432 560.203 427.188 562.665C428.669 567.492 429.532 568.91 431.361 569.525C432.642 569.955 433.556 569.711 434.149 568.78C434.777 567.795 434.818 567.103 434.7 559.568C434.644 555.996 434.712 553.748 434.902 552.948C435.215 551.626 435.958 550.739 437.224 550.177C437.866 549.892 437.972 549.876 439.066 549.902C440.097 549.926 440.282 549.958 440.725 550.19C441.717 550.708 442.462 551.828 442.773 553.27C442.85 553.627 443.023 555.054 443.157 556.442C443.382 558.755 444.261 565.39 444.583 567.2C445.056 569.861 446.119 573.31 446.838 574.522C447.727 576.018 449.197 576.553 450.858 575.985Z" fill="black"/>
</g>
<defs>
<clipPath id="clip0_601_10">
<rect width="412.822" height="180.61" fill="white" transform="translate(124.245 453) rotate(1.02941)"/>
</clipPath>
</defs>
</svg>
